<?xml version="1.0" encoding="utf-8"?>
<!-- Generator: Adobe Illustrator 17.0.0, SVG Export Plug-In . SVG Version: 6.00 Build 0)  -->
<!DOCTYPE svg PUBLIC "-//W3C//DTD SVG 1.1//EN" "http://www.w3.org/Graphics/SVG/1.1/DTD/svg11.dtd">
<svg version="1.1" id="Layer_2" xmlns="http://www.w3.org/2000/svg" xmlns:xlink="http://www.w3.org/1999/xlink" x="0px" y="0px"
	 width="385.84px" height="57.751px" viewBox="0 0 385.84 57.751" enable-background="new 0 0 385.84 57.751" xml:space="preserve">
<g>
	<rect x="0" y="31.855" fill="#231F20" width="52.642" height="24.282"/>
	<g>
		<path fill="#231F20" d="M114.575,24.943c0,11.61-9.513,21.198-21.198,21.198v9.962H68.06c0-58.126,0-11.985,0-52.433h25.093
			C104.913,3.67,114.575,13.108,114.575,24.943z"/>
	</g>
	<g>
		<path fill="#231F20" d="M185.865,28.838h-9.663V3.67h52.433l-9.663,27.415h9.663v25.093h-52.433L185.865,28.838z"/>
	</g>
	<g>
		<path fill="#231F20" d="M326.422,3.67v52.433h-27.265V3.67H326.422z"/>
	</g>
	<g>
		<rect x="0" y="3.496" fill="#231F20" width="24.199" height="24.282"/>
		<rect x="28.442" y="3.496" fill="#231F20" width="24.199" height="24.282"/>
	</g>
	<g>
		<polygon fill="#231F20" points="385.334,29.814 385.334,29.812 385.334,29.81 		"/>
		<path fill="#231F20" d="M358.433,31.749v-3.651h26.843c-0.886-14.632-13.028-26.226-27.882-26.226
			c-15.43,0-27.939,12.509-27.939,27.939c0,15.43,12.509,27.939,27.939,27.939c14.778,0,26.869-11.476,27.865-26.002H358.433z"/>
	</g>
	<path fill="#231F20" d="M145.005,1.873c-15.43,0-27.939,12.509-27.939,27.939c0,15.43,12.509,27.939,27.939,27.939
		c15.43,0,27.939-12.509,27.939-27.939C172.944,14.382,160.435,1.873,145.005,1.873z M144.916,35.191
		c-3.09,0-5.594-2.505-5.594-5.594s2.505-5.594,5.594-5.594c3.09,0,5.594,2.505,5.594,5.594S148.006,35.191,144.916,35.191z"/>
	<path fill="#231F20" d="M262.145,47.018h3.651v9.085c2.812,0,9.369,0,31.282,0L263.971,0l-33.108,56.103
		c22.366,0,28.615,0,31.282,0V47.018z"/>
</g>
</svg>
